<?xml version="1.0" encoding="UTF-8" standalone="no"?>
<!DOCTYPE svg PUBLIC "-//W3C//DTD SVG 1.1//EN" "http://www.w3.org/Graphics/SVG/1.1/DTD/svg11.dtd">
<svg width="100%" height="100%" viewBox="0 0 16 16" version="1.1" xmlns="http://www.w3.org/2000/svg" xmlns:xlink="http://www.w3.org/1999/xlink" xml:space="preserve" xmlns:serif="http://www.serif.com/" style="fill-rule:evenodd;clip-rule:evenodd;stroke-linejoin:round;stroke-miterlimit:2;">
    <g transform="matrix(1,0,0,1,0,-40)">
        <g id="svg-tiny-favicon-google-light" serif:id="svg tiny favicon google light" transform="matrix(0.00833333,0,0,0.0148148,0,40)">
            <rect x="0" y="0" width="1920" height="1080" style="fill:none;"/>
            <clipPath id="_clip1">
                <rect x="0" y="0" width="1920" height="1080"/>
            </clipPath>
            <g clip-path="url(#_clip1)">
                <g transform="matrix(152.727,0,0,72,-338.182,-112.231)">
                    <path d="M14,12.375L12.429,10.5L14.393,7.687L14,5.812L13.214,5.344L12.036,5.812L11.643,7.687L10.071,10.031L6.929,10.031L5.357,7.687L4.964,5.812L3.786,5.344L3,5.812L2.607,7.687L4.571,10.5L3,12.375L3,18L14,18L14,12.375Z" style="fill:rgb(255,180,3);"/>
                </g>
                <g transform="matrix(120,0,0,67.5,0,-31.231)">
                    <path d="M5,15.463L7,19.463L9,19.463L11,15.463L10,11.463L10,10L6,10L6,11.463L5,15.463Z" style="fill:rgb(126,126,126);"/>
                </g>
                <g transform="matrix(160,0,0,90,-200,-289.981)">
                    <circle cx="5" cy="13" r="1.5" style="fill:white;"/>
                </g>
                <g transform="matrix(160,0,0,90,520,-289.981)">
                    <circle cx="5" cy="13" r="1.5" style="fill:white;"/>
                </g>
                <g transform="matrix(51.5233,0,0,28.9818,-1.16363e+06,-1239.63)">
                    <path d="M22606.3,62.734C22605.1,62.714 22604,62.745 22603.1,62.745L22603.1,62.745C22602.3,62.745 22601.2,62.714 22599.9,62.734C22598.8,62.059 22596.6,60.437 22595.5,57.773C22594.6,55.712 22594,54.003 22593.2,52.87C22592.3,51.448 22591.1,50.744 22589,51.075C22588,51.237 22587,51.817 22586.2,52.714C22584.4,54.652 22583.6,58.093 22585.9,61.419C22587,62.937 22588.7,64.021 22590.5,64.762C22587.6,66.435 22585.9,69.197 22585.2,72.601C22584.2,78.179 22586.8,82.158 22589.9,84.713C22592.7,87.08 22596.9,88.961 22603.1,89L22603.1,89L22603.2,89L22603.1,89C22609.4,88.961 22613.5,87.08 22616.4,84.713C22619.5,82.158 22622,78.179 22621,72.601C22620.4,69.197 22618.6,66.435 22615.7,64.762C22617.6,64.021 22619.3,62.937 22620.4,61.419C22622.6,58.093 22621.9,54.652 22620.1,52.714C22619.3,51.817 22618.3,51.237 22617.3,51.075C22615.2,50.744 22614,51.448 22613,52.87C22612.3,54.003 22611.7,55.712 22610.8,57.773C22609.6,60.437 22607.4,62.059 22606.3,62.734ZM22606.9,68.681L22607.4,66.904C22607.5,66.235 22607.1,65.555 22606.4,65.388C22605.8,65.22 22605.1,65.627 22604.9,66.296C22604.9,66.296 22604.7,67.201 22604.4,68.224C22604.2,69.364 22603.7,70.458 22603.1,71.476C22602.6,70.458 22602.1,69.364 22601.8,68.224C22601.6,67.201 22601.4,66.296 22601.4,66.296C22601.2,65.752 22600.7,65.382 22600.2,65.352L22600.1,65.35C22600,65.349 22599.9,65.361 22599.8,65.388C22599.2,65.555 22598.8,66.235 22598.9,66.904L22599.4,68.681C22600.9,69.682 22601.9,71.405 22601.9,73.36C22601.9,76.451 22599.4,78.96 22596.3,78.96C22593.2,78.96 22590.7,76.451 22590.7,73.36C22590.7,70.269 22593.2,67.76 22596.3,67.76C22596.9,67.76 22597.4,67.843 22597.9,67.998C22597.5,67.251 22597,66.542 22596.1,66.266C22594.2,65.604 22591.6,65.936 22589.1,69.367C22586.7,72.573 22587.4,77.143 22590.2,80.435C22593,83.669 22596.8,85.519 22603.1,85.5C22609.4,85.519 22613.3,83.669 22616.1,80.435C22618.9,77.143 22619.6,72.573 22617.2,69.367C22614.7,65.936 22612.1,65.604 22610.1,66.266C22609.3,66.542 22608.7,67.251 22608.4,67.998C22608.9,67.843 22609.4,67.76 22610,67.76C22613.1,67.76 22615.6,70.269 22615.6,73.36C22615.6,76.451 22613.1,78.96 22610,78.96C22606.9,78.96 22604.4,76.451 22604.4,73.36C22604.4,71.405 22605.4,69.682 22606.9,68.681ZM22601.1,81.123C22600.5,80.153 22600.8,78.951 22601.6,78.234C22601.6,78.234 22601.6,78.234 22601.6,78.233C22602.5,77.479 22603.8,77.479 22604.7,78.233C22604.7,78.234 22604.7,78.234 22604.7,78.234C22605.5,78.951 22605.7,80.153 22605.2,81.123C22604.8,81.911 22604.3,82.841 22603.9,83.589C22603.7,83.861 22603.4,84.031 22603.1,84.031C22602.8,84.031 22602.5,83.861 22602.4,83.589C22602,82.841 22601.5,81.911 22601.1,81.123ZM22606.3,73.573L22606.4,73.385C22607.2,72.118 22608.7,71.398 22610.2,71.496C22611.7,71.594 22613.1,72.492 22613.8,73.852C22613.8,73.989 22613.9,74.144 22613.9,74.309C22613.9,74.861 22613.4,75.309 22612.9,75.309C22612.5,75.309 22612.1,75.077 22612,74.741C22611.6,74.02 22610.9,73.544 22610.1,73.492C22609.3,73.44 22608.5,73.823 22608,74.496C22608,74.52 22608,74.539 22608,74.555C22607.8,74.895 22607.5,75.131 22607.1,75.131C22606.5,75.131 22606.1,74.683 22606.1,74.131C22606.1,73.924 22606.2,73.733 22606.3,73.573ZM22592.5,73.852C22593.2,72.492 22594.5,71.594 22596.1,71.496C22597.6,71.398 22599,72.118 22599.9,73.385L22599.9,73.478C22600.1,73.653 22600.2,73.881 22600.2,74.131C22600.2,74.683 22599.7,75.131 22599.2,75.131C22598.8,75.131 22598.5,74.917 22598.3,74.602C22598.3,74.569 22598.3,74.534 22598.2,74.496C22597.8,73.823 22597,73.44 22596.2,73.492C22595.4,73.544 22594.7,74.02 22594.3,74.741C22594.1,75.077 22593.8,75.309 22593.4,75.309C22592.9,75.309 22592.4,74.861 22592.4,74.309C22592.4,74.144 22592.4,73.989 22592.5,73.852ZM22612.4,63.451C22614.1,62.33 22616.2,60.744 22617.6,59.275C22620.3,56.44 22618.6,54.135 22618.3,53.699C22617.9,53.357 22617.4,53.123 22617,53.05C22616.4,52.963 22616,52.984 22615.6,53.137C22615.1,53.379 22614.7,53.919 22614.3,54.623C22613.8,55.65 22613.3,57.002 22612.6,58.563C22611.8,60.439 22610.6,61.88 22609.4,62.91C22610.4,63.018 22611.4,63.188 22612.4,63.451ZM22596.9,62.91C22595.7,61.88 22594.5,60.438 22593.7,58.563C22593,57.002 22592.5,55.65 22592,54.623C22591.6,53.919 22591.2,53.379 22590.6,53.137C22590.3,52.984 22589.8,52.963 22589.3,53.05C22588.8,53.123 22588.4,53.357 22588,53.699C22587.6,54.135 22586,56.44 22588.6,59.275C22590,60.744 22592.2,62.33 22593.8,63.451C22594.8,63.188 22595.9,63.018 22596.9,62.91Z"/>
                </g>
                <g transform="matrix(51.5233,0,0,28.9818,-1.16363e+06,-1236.74)">
                    <path d="M22599.7,52.059L22598.1,48.17C22598,47.908 22598,47.611 22598.1,47.354C22598.2,47.096 22598.4,46.903 22598.7,46.821L22605.9,44.66C22606.2,44.579 22606.5,44.616 22606.7,44.762C22607,44.908 22607.1,45.149 22607.2,45.426L22608.8,53.833C22608.8,53.855 22608.8,53.877 22608.8,53.899C22609.2,54.79 22608.5,56.017 22607.3,56.738C22605.9,57.513 22604.4,57.413 22603.9,56.514C22603.4,55.616 22604,54.257 22605.4,53.482C22605.8,53.243 22606.2,53.088 22606.6,53.013L22605.4,46.893C22605.4,46.893 22600.3,48.416 22600.3,48.416L22602.1,52.568C22602.1,52.647 22602.2,52.728 22602.2,52.809C22602.6,53.705 22601.9,54.981 22600.6,55.723C22599.3,56.498 22597.8,56.397 22597.3,55.499C22596.7,54.6 22597.4,53.241 22598.7,52.466C22599.1,52.281 22599.4,52.146 22599.7,52.059Z" style="fill:rgb(113,81,7);"/>
                </g>
            </g>
        </g>
    </g>
</svg>
