<?xml version="1.0" encoding="UTF-8"?>
<svg version="1.1" viewBox="0 0 100 100" xmlns="http://www.w3.org/2000/svg">
 <g transform="matrix(.18941 .016571 -.016571 .18941 8.3702 -2.4374)" width="100%" height="100%">
  <path width="100%" height="100%" d="m18.462 30.203c-4.658 4.6907-8.2164 10.17-11.109 16.132l18.388 5.9516c-1.1184 3.2798-5.8617 6.3117-14.552 9.0755-2.7738 36.542 20.142 53.465 49.473 65.488 15.656-8.166 30.105-15.8 41.717-22.191-4.895 6.7399-12.088 14.654-21.619 23.763 15.939 5.3664 33.854 8.4663 41.026 23.871 38.234-7.9934 75.652-13.467 104.41 7.8224-24.331 0.14223-47.56-1.3193-75.709 4.3709 57.483 26.819 99.245 71.204 133.15 124.36 20.464-1.4578 38.383-0.58289 53.075 3.247-23.262 3.612-43.305 9.3953-48.02 25.522 30.523-0.77931 59.889 3.8169 84.315 31.353-18.101-5.9655-36.043-11.463-53.845-16.558 5.2394 8.619 16.217 19.005 13.98 26.074-11.785 37.244-3.1416 55.944 16.745 67.741-21.264-32.038 17.086-59.612 46.756-19.833-6.196-2.0363-12.018-2.9876-17.934-4.2079 12.1 5.9317 27.091 10.46 29.669 23.096l13.913 68.205 12.959 9.2699-16.122-71.237c-1.0387-4.5902-0.15855-7.7191 1.8852-9.4043 50.372-41.536 51.501-77.477 37.431-113.4-7.1135 15.471-14.021 31.346-23.425 42.335 18.242-82.205-1.3836-141.88-38.56-191.11-0.27651 18.223-2.1936 35.485-8.2948 50.282-8.396-96.503-44.759-119.71-84.126-135.05 6.5928 14.482 12.008 19.154 20.28 47.631-26.039-24.678-46.803-50.239-50.896-78.579-7.0464 27.891 17.643 53.682 20.502 72.512-30.024-42.774-61.283-80.482-91.67-98.302 10.022 15.14 21.189 29.981 26.815 46.261-41.577-39.215-83.49-49.388-125.39-60.896 16.812 10.567 34.862 20.868 37.627 34.372-30.076-22.09-61.761-29.182-94.527-26.24 8.4363 6.1062 18.242 11.745 20.04 20.129l-30.681-13.27c-7.2707 2.8097-13.021 6.7177-17.678 11.409zm97.712 33.848c0.4412-0.82832 2.2475-1.1605 4.4003-0.8072 153.18 25.136 259.68 121.11 291 327.51l-11.25-13.649c-27.038-131.07-61.363-184.51-165.57-187.38-4.9895-0.13729-5.8431-1.1937-1.9835-2.3844 31.626-9.7574 66.283-4.0549 105.2 23.315-49.107-71.584-119.31-121.71-218.01-142.83-3.3025-1.6292-4.2225-2.9539-3.7813-3.7824z" fill-rule="evenodd"/>
 </g>
</svg>
